<mxfile host="app.diagrams.net" modified="2022-02-05T17:47:32.555Z" agent="5.0 (Windows NT 10.0; Win64; x64) AppleWebKit/537.36 (KHTML, like Gecko) Chrome/98.0.4758.81 Safari/537.36" etag="q1iHg3lZwiTPspl7AHsl" version="16.5.2" type="github">
  <diagram id="TJyMP7UzL64B8zfCcaaS" name="Page-1">
    <mxGraphModel dx="744" dy="492" grid="1" gridSize="10" guides="1" tooltips="1" connect="1" arrows="1" fold="1" page="1" pageScale="1" pageWidth="827" pageHeight="1169" math="0" shadow="0">
      <root>
        <mxCell id="M8OfA5w0m2k7c0YiUDpN-0" />
        <mxCell id="M8OfA5w0m2k7c0YiUDpN-1" parent="M8OfA5w0m2k7c0YiUDpN-0" />
        <mxCell id="ZbfkbBADjd9eAM3jK4sL-0" value="Actor" style="shape=umlActor;verticalLabelPosition=bottom;verticalAlign=top;html=1;outlineConnect=0;" vertex="1" parent="M8OfA5w0m2k7c0YiUDpN-1">
          <mxGeometry x="210" y="285" width="30" height="60" as="geometry" />
        </mxCell>
        <mxCell id="ZbfkbBADjd9eAM3jK4sL-9" style="edgeStyle=orthogonalEdgeStyle;rounded=0;orthogonalLoop=1;jettySize=auto;html=1;exitX=0.5;exitY=1;exitDx=0;exitDy=0;entryX=0.5;entryY=0;entryDx=0;entryDy=0;" edge="1" parent="M8OfA5w0m2k7c0YiUDpN-1" source="ZbfkbBADjd9eAM3jK4sL-1" target="ZbfkbBADjd9eAM3jK4sL-6">
          <mxGeometry relative="1" as="geometry" />
        </mxCell>
        <mxCell id="ZbfkbBADjd9eAM3jK4sL-1" value="" style="aspect=fixed;perimeter=ellipsePerimeter;html=1;align=center;shadow=0;dashed=0;fontColor=#4277BB;labelBackgroundColor=#ffffff;fontSize=12;spacingTop=3;image;image=img/lib/ibm/miscellaneous/ibm_public_cloud.svg;" vertex="1" parent="M8OfA5w0m2k7c0YiUDpN-1">
          <mxGeometry x="40" y="300" width="60" height="46.2" as="geometry" />
        </mxCell>
        <mxCell id="ZbfkbBADjd9eAM3jK4sL-5" style="edgeStyle=orthogonalEdgeStyle;rounded=0;orthogonalLoop=1;jettySize=auto;html=1;" edge="1" parent="M8OfA5w0m2k7c0YiUDpN-1" source="ZbfkbBADjd9eAM3jK4sL-2" target="ZbfkbBADjd9eAM3jK4sL-1">
          <mxGeometry relative="1" as="geometry" />
        </mxCell>
        <mxCell id="ZbfkbBADjd9eAM3jK4sL-2" value="" style="aspect=fixed;perimeter=ellipsePerimeter;html=1;align=center;shadow=0;dashed=0;fontColor=#4277BB;labelBackgroundColor=#ffffff;fontSize=12;spacingTop=3;image;image=img/lib/ibm/users/device.svg;" vertex="1" parent="M8OfA5w0m2k7c0YiUDpN-1">
          <mxGeometry x="40" y="180" width="60" height="60" as="geometry" />
        </mxCell>
        <mxCell id="ZbfkbBADjd9eAM3jK4sL-8" style="edgeStyle=orthogonalEdgeStyle;rounded=0;orthogonalLoop=1;jettySize=auto;html=1;exitX=1;exitY=0.5;exitDx=0;exitDy=0;" edge="1" parent="M8OfA5w0m2k7c0YiUDpN-1" source="ZbfkbBADjd9eAM3jK4sL-6" target="ZbfkbBADjd9eAM3jK4sL-7">
          <mxGeometry relative="1" as="geometry" />
        </mxCell>
        <mxCell id="ZbfkbBADjd9eAM3jK4sL-6" value="NODE MCU ESP8266" style="shape=image;html=1;verticalAlign=top;verticalLabelPosition=bottom;labelBackgroundColor=#ffffff;imageAspect=0;aspect=fixed;image=https://cdn1.iconfinder.com/data/icons/heroicons-solid/20/chip-128.png" vertex="1" parent="M8OfA5w0m2k7c0YiUDpN-1">
          <mxGeometry x="30" y="440" width="128" height="128" as="geometry" />
        </mxCell>
        <mxCell id="ZbfkbBADjd9eAM3jK4sL-26" style="edgeStyle=orthogonalEdgeStyle;rounded=0;orthogonalLoop=1;jettySize=auto;html=1;exitX=1;exitY=0.5;exitDx=0;exitDy=0;labelBackgroundColor=#3333FF;labelBorderColor=#0000FF;fontColor=#000099;strokeColor=#6C8EBF;" edge="1" parent="M8OfA5w0m2k7c0YiUDpN-1" source="ZbfkbBADjd9eAM3jK4sL-7">
          <mxGeometry relative="1" as="geometry">
            <mxPoint x="410" y="440" as="targetPoint" />
          </mxGeometry>
        </mxCell>
        <mxCell id="ZbfkbBADjd9eAM3jK4sL-7" value="ARDUINO UNO" style="shape=image;html=1;verticalAlign=top;verticalLabelPosition=bottom;labelBackgroundColor=#ffffff;imageAspect=0;aspect=fixed;image=https://cdn1.iconfinder.com/data/icons/computer-hardware-hand-drawn-vol-1/52/microchip__chip__cpu__computer__proceesor__pc__hardware-128.png" vertex="1" parent="M8OfA5w0m2k7c0YiUDpN-1">
          <mxGeometry x="220" y="450" width="128" height="128" as="geometry" />
        </mxCell>
        <mxCell id="ZbfkbBADjd9eAM3jK4sL-11" value="" style="endArrow=none;html=1;rounded=0;fontColor=default;" edge="1" parent="M8OfA5w0m2k7c0YiUDpN-1">
          <mxGeometry width="50" height="50" relative="1" as="geometry">
            <mxPoint x="520" y="610" as="sourcePoint" />
            <mxPoint x="290" y="240" as="targetPoint" />
          </mxGeometry>
        </mxCell>
        <mxCell id="ZbfkbBADjd9eAM3jK4sL-12" value="" style="endArrow=none;html=1;rounded=0;fontColor=default;" edge="1" parent="M8OfA5w0m2k7c0YiUDpN-1">
          <mxGeometry width="50" height="50" relative="1" as="geometry">
            <mxPoint x="529" y="610" as="sourcePoint" />
            <mxPoint x="299" y="240" as="targetPoint" />
          </mxGeometry>
        </mxCell>
        <mxCell id="ZbfkbBADjd9eAM3jK4sL-14" value="" style="verticalLabelPosition=bottom;align=center;outlineConnect=0;dashed=0;html=1;verticalAlign=top;shape=mxgraph.pid.flow_sensors.ultrasonic;labelBackgroundColor=none;fontColor=default;" vertex="1" parent="M8OfA5w0m2k7c0YiUDpN-1">
          <mxGeometry x="580" y="250" width="40" height="40" as="geometry" />
        </mxCell>
        <mxCell id="ZbfkbBADjd9eAM3jK4sL-15" value="" style="html=1;whiteSpace=wrap;shape=isoCube2;backgroundOutline=1;isoAngle=15;labelBackgroundColor=none;fontColor=default;" vertex="1" parent="M8OfA5w0m2k7c0YiUDpN-1">
          <mxGeometry x="510" y="60" width="600" height="600" as="geometry" />
        </mxCell>
        <mxCell id="ZbfkbBADjd9eAM3jK4sL-23" style="edgeStyle=orthogonalEdgeStyle;rounded=0;orthogonalLoop=1;jettySize=auto;html=1;exitX=0;exitY=0.5;exitDx=0;exitDy=0;exitPerimeter=0;fontColor=#000099;labelBorderColor=#0000FF;fillColor=#dae8fc;strokeColor=#6c8ebf;" edge="1" parent="M8OfA5w0m2k7c0YiUDpN-1" source="ZbfkbBADjd9eAM3jK4sL-17">
          <mxGeometry relative="1" as="geometry">
            <mxPoint x="370" y="350" as="targetPoint" />
            <Array as="points">
              <mxPoint x="550" y="300" />
              <mxPoint x="370" y="300" />
            </Array>
          </mxGeometry>
        </mxCell>
        <mxCell id="ZbfkbBADjd9eAM3jK4sL-17" value="ULTRASONICO" style="verticalLabelPosition=bottom;align=center;outlineConnect=0;dashed=0;html=1;verticalAlign=top;shape=mxgraph.pid.flow_sensors.ultrasonic;labelBackgroundColor=none;fontColor=default;" vertex="1" parent="M8OfA5w0m2k7c0YiUDpN-1">
          <mxGeometry x="550" y="260" width="50" height="50" as="geometry" />
        </mxCell>
        <mxCell id="ZbfkbBADjd9eAM3jK4sL-25" style="edgeStyle=orthogonalEdgeStyle;rounded=0;orthogonalLoop=1;jettySize=auto;html=1;exitX=0;exitY=0.5;exitDx=0;exitDy=0;fontColor=#3333FF;fillColor=#dae8fc;strokeColor=#6c8ebf;" edge="1" parent="M8OfA5w0m2k7c0YiUDpN-1" source="ZbfkbBADjd9eAM3jK4sL-18">
          <mxGeometry relative="1" as="geometry">
            <mxPoint x="430" y="435" as="targetPoint" />
            <Array as="points">
              <mxPoint x="555" y="430" />
              <mxPoint x="430" y="430" />
            </Array>
          </mxGeometry>
        </mxCell>
        <mxCell id="ZbfkbBADjd9eAM3jK4sL-18" value="))" style="whiteSpace=wrap;html=1;aspect=fixed;labelBackgroundColor=none;fontColor=default;" vertex="1" parent="M8OfA5w0m2k7c0YiUDpN-1">
          <mxGeometry x="555" y="410" width="50" height="50" as="geometry" />
        </mxCell>
        <mxCell id="ZbfkbBADjd9eAM3jK4sL-20" value="PIR" style="text;html=1;strokeColor=none;fillColor=none;align=center;verticalAlign=middle;whiteSpace=wrap;rounded=0;labelBackgroundColor=none;fontColor=default;" vertex="1" parent="M8OfA5w0m2k7c0YiUDpN-1">
          <mxGeometry x="550" y="460" width="60" height="20" as="geometry" />
        </mxCell>
        <mxCell id="ZbfkbBADjd9eAM3jK4sL-24" style="edgeStyle=orthogonalEdgeStyle;rounded=0;orthogonalLoop=1;jettySize=auto;html=1;exitX=0;exitY=0.57;exitDx=0;exitDy=0;exitPerimeter=0;fontColor=#6666FF;labelBackgroundColor=#3333FF;fillColor=#dae8fc;strokeColor=#6C8EBF;" edge="1" parent="M8OfA5w0m2k7c0YiUDpN-1" source="ZbfkbBADjd9eAM3jK4sL-21">
          <mxGeometry relative="1" as="geometry">
            <mxPoint x="410" y="410" as="targetPoint" />
            <Array as="points">
              <mxPoint x="410" y="380" />
            </Array>
          </mxGeometry>
        </mxCell>
        <mxCell id="ZbfkbBADjd9eAM3jK4sL-21" value="SENSOR LM393" style="verticalLabelPosition=bottom;shadow=0;dashed=0;align=center;html=1;verticalAlign=top;shape=mxgraph.electrical.opto_electronics.led_2;pointerEvents=1;labelBackgroundColor=none;fontColor=default;" vertex="1" parent="M8OfA5w0m2k7c0YiUDpN-1">
          <mxGeometry x="700" y="340" width="60" height="70" as="geometry" />
        </mxCell>
        <mxCell id="ZbfkbBADjd9eAM3jK4sL-33" style="edgeStyle=orthogonalEdgeStyle;rounded=0;orthogonalLoop=1;jettySize=auto;html=1;labelBackgroundColor=#3333FF;labelBorderColor=#0000FF;fontColor=#000099;strokeColor=#b85450;fillColor=#f8cecc;" edge="1" parent="M8OfA5w0m2k7c0YiUDpN-1" source="ZbfkbBADjd9eAM3jK4sL-27">
          <mxGeometry relative="1" as="geometry">
            <mxPoint x="340" y="300" as="targetPoint" />
          </mxGeometry>
        </mxCell>
        <mxCell id="ZbfkbBADjd9eAM3jK4sL-27" value="" style="shape=image;html=1;verticalAlign=top;verticalLabelPosition=bottom;labelBackgroundColor=#ffffff;imageAspect=0;aspect=fixed;image=https://cdn1.iconfinder.com/data/icons/science-technology-outline-24-px/24/Computer_device_computer_hardware_computer_keyboard_input_device_keyboard_-128.png;fontColor=#000099;" vertex="1" parent="M8OfA5w0m2k7c0YiUDpN-1">
          <mxGeometry x="640" y="140" width="70" height="70" as="geometry" />
        </mxCell>
        <mxCell id="ZbfkbBADjd9eAM3jK4sL-28" value="" style="shape=image;html=1;verticalAlign=top;verticalLabelPosition=bottom;labelBackgroundColor=#ffffff;imageAspect=0;aspect=fixed;image=https://cdn2.iconfinder.com/data/icons/electronic-13/480/6-electronic-led-icon-2-128.png;fontColor=#000099;" vertex="1" parent="M8OfA5w0m2k7c0YiUDpN-1">
          <mxGeometry x="740" y="90" width="70" height="70" as="geometry" />
        </mxCell>
        <mxCell id="ZbfkbBADjd9eAM3jK4sL-29" value="" style="pointerEvents=1;verticalLabelPosition=bottom;shadow=0;dashed=0;align=center;html=1;verticalAlign=top;shape=mxgraph.electrical.electro-mechanical.buzzer;labelBackgroundColor=none;fontColor=#000099;" vertex="1" parent="M8OfA5w0m2k7c0YiUDpN-1">
          <mxGeometry x="860" y="120" width="45" height="60" as="geometry" />
        </mxCell>
        <mxCell id="ZbfkbBADjd9eAM3jK4sL-30" value="" style="shape=image;html=1;verticalAlign=top;verticalLabelPosition=bottom;labelBackgroundColor=#ffffff;imageAspect=0;aspect=fixed;image=https://cdn1.iconfinder.com/data/icons/competitive-strategy-and-corporate-training/512/589_Engine_industry_machine_motor_performance_game_gaming_genres_programing-128.png;fontColor=#000099;" vertex="1" parent="M8OfA5w0m2k7c0YiUDpN-1">
          <mxGeometry x="770" y="215" width="70" height="70" as="geometry" />
        </mxCell>
        <mxCell id="ZbfkbBADjd9eAM3jK4sL-31" value="" style="verticalLabelPosition=bottom;html=1;verticalAlign=top;align=center;shape=mxgraph.azure.computer;pointerEvents=1;labelBackgroundColor=none;" vertex="1" parent="M8OfA5w0m2k7c0YiUDpN-1">
          <mxGeometry x="950" y="175" width="50" height="45" as="geometry" />
        </mxCell>
      </root>
    </mxGraphModel>
  </diagram>
</mxfile>
